<svg width="637" height="203" viewBox="0 0 637 203" fill="none" xmlns="http://www.w3.org/2000/svg">
<path d="M486.754 141.465C477.274 113.599 501.662 110.997 515.041 113.179C485.131 98.8264 471.952 110.162 469.101 117.624C465.071 134.103 479.736 151.942 488.76 160.208C507.291 177.182 532.757 180.017 539.396 163.169C544.793 149.473 542.88 125.106 541.248 114.635C540.156 94.9799 533.877 70.1378 534.033 56.1503C534.185 42.4722 555.287 31.4383 579.473 57.3921C603.659 83.3459 597.816 97.8339 597.757 103.079C593.358 121.31 565.757 124.706 552.506 124.125C552.506 124.125 589.587 130.268 599.733 121.851C618.699 106.342 612.42 81.5001 605.543 71.0874C590.1 45.0362 554.558 18.3336 530.463 23.4098C511.187 27.4706 515.945 58.0989 520.733 72.9054C525.944 89.0184 536.227 125.879 535.671 144.416C531.578 166.489 515.48 165.183 507.943 161.77C502.723 159.497 491.178 152.254 486.754 141.465Z" fill="#00186E"/>
<path fill-rule="evenodd" clip-rule="evenodd" d="M520.596 44.3772C520.017 53.7099 522.262 64.5357 524.567 71.6653C527.202 79.8131 531.107 93.1661 534.289 106.838C536.118 114.696 537.744 122.806 538.729 130.154C538.426 124.179 537.827 118.846 537.267 115.255L537.237 115.058L537.225 114.858C536.711 105.607 535.012 95.1206 533.366 84.9615C533.309 84.611 533.252 84.2608 533.195 83.9111C531.529 73.623 529.922 63.5239 530.004 56.105C530.105 47.0623 537.104 39.4016 547.154 37.9227C557.237 36.4388 569.792 41.0935 582.421 54.6449C594.881 68.0158 599.912 78.767 601.652 87.1852C602.986 93.6364 602.266 99.1939 601.929 101.792C601.848 102.416 601.789 102.87 601.786 103.124L601.781 103.58L601.674 104.024C599.573 112.733 593.207 118.358 585.95 121.935C586.502 121.883 587.045 121.824 587.578 121.758C592.346 121.167 595.565 120.073 597.161 118.749L597.172 118.74L597.183 118.731C605.545 111.893 608.353 103.066 608.301 94.5828C608.247 85.9549 605.213 77.8979 602.182 73.3075L602.128 73.2258L602.078 73.1417C594.692 60.6821 582.383 47.9177 568.999 38.9191C555.453 29.8108 541.717 25.1562 531.294 27.352C527.655 28.1187 525.255 30.0578 523.599 32.837C521.861 35.7524 520.885 39.7155 520.596 44.3772ZM552.506 124.125L551.848 128.1L552.682 120.099C558.959 120.375 568.653 119.693 577.17 116.836C585.641 113.994 591.897 109.395 593.742 102.521C593.783 101.505 593.908 100.522 594.038 99.4928C594.384 96.7638 594.772 93.707 593.761 88.8168C592.391 82.1913 588.251 72.7216 576.525 60.1386C564.968 47.7362 554.879 44.9309 548.327 45.8951C541.742 46.8642 538.114 51.5594 538.062 56.1948C537.989 62.7635 539.443 72.0792 541.15 82.6229C541.216 83.0309 541.283 83.4405 541.349 83.8514C542.961 93.7954 544.709 104.576 545.26 114.212C546.096 119.649 546.98 128.463 546.987 137.689C546.995 146.92 546.132 157.065 543.145 164.646C538.973 175.232 528.881 179.2 518.232 178.389C507.659 177.583 495.84 172.156 486.039 163.178C486.039 163.178 486.039 163.178 486.039 163.178C481.314 158.85 475.087 152.003 470.532 143.986C466.013 136.03 462.821 126.344 465.187 116.667L465.247 116.422L465.337 116.186C467.228 111.236 472.257 105.631 480.884 103.328C489.501 101.028 501.288 102.11 516.784 109.546L514.392 117.155C508.046 116.12 499.744 116.374 494.364 119.529C491.835 121.012 490.012 123.089 489.172 126.074C488.307 129.144 488.359 133.62 490.528 140.048C492.418 144.586 495.875 148.556 499.645 151.728C503.436 154.919 507.294 157.093 509.551 158.076L509.578 158.087L509.605 158.099C512.754 159.525 517.531 160.398 521.713 158.866C525.503 157.479 529.768 153.756 531.652 143.986C531.85 135.285 529.555 122.046 526.44 108.664C523.317 95.2436 519.476 82.11 516.9 74.1448C514.417 66.4679 511.889 54.5763 512.553 43.8781C512.885 38.5243 514.035 33.1435 516.677 28.7112C519.4 24.1428 523.634 20.7306 529.633 19.4668C543.304 16.5865 559.386 22.7451 573.496 32.2319C587.739 41.809 600.899 55.3859 608.961 68.9502C612.785 74.7803 616.295 84.3084 616.359 94.5328C616.423 104.947 612.89 116.291 602.294 124.961C598.817 127.839 593.603 129.131 588.569 129.755C583.348 130.402 577.509 130.416 572.13 130.169C566.729 129.921 561.67 129.405 557.97 128.952C556.116 128.726 554.596 128.514 553.535 128.359C553.004 128.281 552.588 128.217 552.301 128.172C552.158 128.15 552.047 128.132 551.971 128.12L551.883 128.105L551.851 128.1L551.848 128.1C551.847 128.1 551.848 128.1 552.506 124.125ZM491.482 157.236C500.211 165.232 510.391 169.71 518.844 170.354C527.22 170.992 533.18 167.953 535.648 161.692C536.842 158.66 537.661 154.948 538.181 150.88C535.374 159.368 530.392 164.27 524.484 166.433C517.724 168.909 510.697 167.433 506.308 165.452C503.345 164.159 498.835 161.579 494.456 157.894C490.073 154.205 485.571 149.198 483.026 142.994L482.979 142.879L482.939 142.763C480.408 135.321 479.96 129.059 481.415 123.891C482.899 118.619 486.231 114.957 490.287 112.578C491.589 111.815 492.968 111.181 494.395 110.659C489.684 110.013 485.912 110.326 482.963 111.114C476.989 112.708 474 116.333 472.953 118.841C471.406 125.572 473.529 132.946 477.539 140.005C481.309 146.641 486.473 152.504 490.644 156.456C490.921 156.72 491.201 156.979 491.482 157.236Z" fill="#00186E"/>
<path d="M0 80.1199V55.2563H105.358V80.1199H67.3074V173.654H38.2198V80.1199H0Z" fill="#FB0F01"/>
<path d="M121.261 173.654V55.2563H150.349V173.654H121.261Z" fill="#FB0F01"/>
<path d="M175.82 55.2563H203.217L255.811 126.971L255.304 55.2563H282.701V173.654H256.995L202.71 99.5709L203.217 173.654H175.82V55.2563Z" fill="#FB0F01"/>
<path d="M309.942 173.654V55.2563H400.08V79.6124H339.03V102.954H381.647V126.633H339.03V173.654H309.942Z" fill="#FB0F01"/>
<path d="M421.234 173.654V55.2563H450.322V173.654H421.234Z" fill="#FB0F01"/>
</svg>
